<svg width="155" height="155" viewBox="0 0 155 155" fill="none" xmlns="http://www.w3.org/2000/svg">
<path d="M72.8047 23.8119C72.2221 23.1953 71.7666 22.47 71.4642 21.6773C71.1619 20.8847 71.0186 20.0403 71.0426 19.1923C71.0666 18.3443 71.2574 17.5094 71.604 16.7351C71.9507 15.9608 72.4465 15.2624 73.0631 14.6798C73.6796 14.0971 74.405 13.6416 75.1976 13.3393C75.9902 13.0369 76.8346 12.8936 77.6826 12.9176C78.5306 12.9416 79.3656 13.1324 80.1398 13.4791C80.9141 13.8257 81.6125 14.3215 82.1952 14.9381L137.091 73.0631C138.225 74.2622 138.856 75.8498 138.856 77.5C138.856 79.1502 138.225 80.7377 137.091 81.9369L82.1952 140.068C81.6163 140.698 80.9181 141.207 80.141 141.565C79.3639 141.923 78.5234 142.123 77.6683 142.153C76.8133 142.184 75.9607 142.044 75.1602 141.742C74.3596 141.44 73.627 140.982 73.005 140.395C72.3829 139.807 71.8837 139.102 71.5365 138.32C71.1893 137.538 71.0009 136.695 70.9822 135.84C70.9636 134.984 71.1151 134.134 71.428 133.338C71.7408 132.541 72.2088 131.815 72.8047 131.201L123.516 77.5L72.8047 23.8119Z" fill="white"/>
</svg>
