<svg width="281" height="291" viewBox="0 0 281 291" fill="none" xmlns="http://www.w3.org/2000/svg">
<g clip-path="url(#clip0_777_184)">
<path d="M20.83 289.9C23.02 289.09 23.7 286.44 24.57 284.28C25.54 281.89 27.48 279.51 31.38 274.75C35.2 270.08 38.97 267.2 41.59 265.22C46.46 261.54 50.49 259.55 57.93 255.86C64.59 252.56 67.93 250.91 69.16 250.58C72.41 249.73 76.25 249.29 77.67 246.67C77.9 246.25 78.57 245.02 78.18 243.61C78.14 243.48 77.79 242.26 76.65 241.57C75.32 240.76 73.74 241.18 72.39 241.57C66.99 243.15 64.73 244.29 64.73 244.29C58.82 247.29 59.83 246.07 54.01 249.06C49.62 251.31 46.54 253.29 42.78 255.7C39.7 257.67 37.83 258.88 35.29 260.81C32.7 262.78 29.99 264.84 26.95 268.13C24.49 270.79 22.99 272.98 20.82 276.13C18.27 279.84 19.87 278.07 17.08 282.43C15.93 284.23 15.18 285.26 15.38 286.69C15.54 287.89 16.34 289.13 17.59 289.75C17.66 289.78 19.2 290.52 20.82 289.92L20.83 289.9Z" fill="#CF2C2C"/>
<path d="M39.93 248.22C42.86 246.47 46.81 244.15 52.38 242.03C61.92 238.4 66.69 236.58 67.51 236.48C68.31 236.37 71.23 236.03 71.85 234.37C72.08 233.76 71.96 233.07 71.85 232.39C71.74 231.74 71.51 230.37 70.64 229.58C69.73 228.76 68.39 228.82 66.75 229.07C62.61 229.7 59.49 231.08 59.28 231.18C52.51 234.19 53.58 233.18 47.92 235.84C44.53 237.43 41.69 238.94 39.49 240.18C37.6 241.24 35.19 242.61 32.15 244.65C28.43 247.14 29.6 246.74 23.02 251.61C21.12 253.02 19.61 254.88 17.85 256.46C17.41 256.85 16.47 257.7 16.25 259.01C16.1 259.96 16.39 260.73 16.51 260.99C16.62 261.25 17.08 262.26 18.17 262.78C19.29 263.3 20.38 262.99 20.85 262.84C22.08 262.46 22.58 261.75 24.49 259.9C25.28 259.14 26.12 258.43 26.92 257.67C29.23 255.44 34.27 251.6 39.94 248.22H39.93Z" fill="#CF2C2C"/>
<path d="M15.43 249.77C16.21 248.8 18.29 247.04 22.45 243.51C23.32 242.77 26.7 239.94 31.51 236.87C33.37 235.68 35.79 234.15 39.17 232.53C41.56 231.38 43.66 230.62 47.85 229.08C52.47 227.39 54.77 226.55 57.3 225.89C59.62 225.28 59.65 225.42 67.39 223.98C75.36 222.49 74.89 222.44 76.45 222.32C79.73 222.08 81.94 222.32 86.92 221.94C87.84 221.87 89.19 221.55 91.9 220.92C93.19 220.62 94.02 220.39 94.71 219.64C94.91 219.42 95.84 218.34 95.6 216.96C95.4 215.83 94.55 215.18 94.2 214.92C92.77 213.87 91.04 213.98 90.24 214.03C87.31 214.2 84.36 213.94 81.43 214.16C75.37 214.61 76.19 214.12 72.62 214.54C71.73 214.65 70.04 214.87 62.92 216.58C57.67 217.84 55.05 218.47 53.35 219.01C49.65 220.17 49.55 220.51 41.35 223.73C34.67 226.36 34.25 226.32 31.9 227.56C29.07 229.05 27.25 230.38 23.6 233.05C21.33 234.71 17.89 237.24 14.41 240.58C11.64 243.24 12.03 243.35 10.32 244.67C9.44 245.35 8.38 246.06 7.64 247.48C7.02 248.67 7 249.62 7 249.91C7 250.46 7 251.72 7.89 252.59C8.96 253.65 10.62 253.44 11.08 253.36C13.11 253 14.21 251.29 15.42 249.79L15.43 249.77Z" fill="#CF2C2C"/>
<path d="M98.27 242.28C103.84 240.52 109.79 240.32 115.5 239.09C127.21 236.56 127.9 237.71 142.95 234.88C151.95 233.19 158.92 231.42 165.93 229.65C174.91 227.37 181.74 225.37 184.95 224.42C195.56 221.25 200.87 219.67 208.06 216.63C212.21 214.88 215.6 213.21 222.36 209.86C228.83 206.66 232.29 204.77 235.25 202.97C239.91 200.14 239.36 199.98 242.02 198.63C242.04 198.62 243.61 197.82 245.34 196.33C246.83 195.04 247.25 194.28 247.38 193.52C247.54 192.6 247.26 191.83 247.12 191.48C247.03 191.24 246.4 189.66 245.08 189.18C243.74 188.69 242.29 189.55 241.63 189.95C237.26 192.61 227 199.14 224.27 200.8C220.8 202.91 217.94 204.19 216.36 204.89C212.13 206.76 210.94 206.81 203.47 209.36C196.83 211.63 196.9 211.89 190.32 214.08C186.28 215.43 186.55 215.23 180.23 217.27C171.89 219.96 171.8 220.18 168.1 221.23C164.13 222.35 161.27 222.93 155.84 224.04C150.31 225.17 150.09 225.05 142.05 226.59C135.47 227.85 135.35 227.98 130.94 228.76C128.32 229.22 125.45 229.66 119.71 230.55C110.37 231.98 110.92 231.83 108.09 232.34C100.43 233.72 100.48 234.14 97.75 234.25C96.03 234.32 95.11 234.55 93.28 235.02C91.63 235.44 90.65 235.84 89.83 236.68C89.55 236.96 88.96 237.59 88.68 238.59C88.64 238.75 88.14 240.66 89.19 241.91C90.09 242.98 91.61 242.97 93.66 242.93C96.42 242.87 98.26 242.29 98.26 242.29L98.27 242.28Z" fill="#CF2C2C"/>
<path d="M107.85 217.77C128.38 217.53 139.38 214.58 139.38 214.58C155.51 210.26 153.55 212.28 174.61 206.79C187.39 203.46 192.31 201.63 194.78 200.66C197.81 199.48 202.5 197.36 211.89 193.13C218.35 190.22 221.63 188.73 224.02 187.51C225.39 186.81 231.69 183.56 239.72 178.32C244.3 175.33 248.01 172.89 252.61 169C256.59 165.64 258.85 163.21 261.29 160.57C261.29 160.57 263.87 157.78 266.91 153.04C267.35 152.36 267.91 151.42 268.31 150.1C268.47 149.56 268.59 148.89 268.82 147.55C269.2 145.34 269.14 145.06 269.08 144.87C268.75 143.86 267.74 143.03 266.65 142.83C266.27 142.76 265.1 142.64 263.2 144.23C260.93 146.14 260.18 148.38 259.37 150.1C258.44 152.08 256.7 153.97 253.24 157.76C251.27 159.91 247.79 163.45 242.9 167.08C240.95 168.52 239.38 169.54 230.9 174.36C222.84 178.94 218.83 181.25 216.99 182.15C213.11 184.03 210.2 185.25 197.71 190.06C185.88 194.63 179.96 196.91 177.41 197.72C169.95 200.09 164.32 201.35 155.45 203.34C151.1 204.31 144.03 205.82 135.28 207.3C125.21 209 120.18 209.85 118.17 209.73C115.19 209.54 112.22 210.36 109.23 210.5C108.27 210.54 106.64 210.61 105.53 211.78C104.82 212.53 104.38 213.68 104.51 214.84C104.54 215.09 104.68 216.36 105.66 217.14C106.44 217.76 107.4 217.78 107.83 217.78L107.85 217.77Z" fill="#CF2C2C"/>
<path d="M13.2501 228.5C17.8701 224.9 20.1901 223.1 24.3601 219.18C26.4601 217.2 29.1701 215.73 34.5701 212.8C37.1901 211.38 42.9701 208.27 50.4001 205.91C55.8401 204.18 61.2501 203.5 71.8501 202.21C80.6701 201.14 88.1201 200.48 93.9401 200.04C109.13 198.88 109.52 199.42 118.2 198.51C126.58 197.63 132.3 196.47 143.73 194.17C152.7 192.36 161.5 190.59 173.09 187.28C180.98 185.02 189.33 182.64 200.15 178.09C206.66 175.35 215.58 171.2 225.55 165.2C231.22 161.79 235.63 159.11 241.12 154.6C242.96 153.1 249.36 147.74 256.31 139.28C259.57 135.31 261.93 131.53 266.65 123.96C266.65 123.96 268.53 120.95 270.74 112.09C270.84 111.71 271.08 110.68 270.61 109.66C270.53 109.48 270.05 108.43 268.95 108.13C267.95 107.85 267.07 108.38 266.65 108.64C265.77 109.17 265.27 109.92 264.61 111.19C263.79 112.78 263.38 113.57 262.95 115.02C262.5 116.55 261.03 118.89 258.1 123.57C255.66 127.46 254.36 129.54 252.23 132.38C250.6 134.55 248.9 136.81 246.36 139.4C243.92 141.88 242.44 142.89 238.32 146.17C230.95 152.02 231.92 151.77 228.11 154.6C222.42 158.82 217.54 161.39 214.32 163.06C212.45 164.03 208.96 165.79 200.92 169.02C191.29 172.89 183.44 175.55 179.22 176.93C170.45 179.81 162.69 182.36 152.19 184.85C138.93 187.99 128.6 189.31 120.37 190.33C113.87 191.14 113.04 191.07 91.5201 192.88C62.8201 195.3 59.3201 195.85 54.5001 196.97C52.6701 197.4 35.8301 201.4 25.6501 208.46C22.2601 210.81 21.2901 212.33 16.0801 215.74C14.2901 216.91 12.7601 218.35 9.70006 221.23C8.87006 222.01 7.60006 223.24 7.40006 225.06C7.36006 225.44 7.25006 226.54 7.91006 227.61C8.57006 228.68 9.78006 229.4 10.9701 229.4C12.1001 229.4 12.9401 228.76 13.2701 228.51L13.2501 228.5Z" fill="#CF2C2C"/>
<path d="M6.09744 212.627C10.5574 208.557 15.3474 204.867 19.7574 200.757C24.1174 196.697 28.2074 194.797 34.0574 192.077C39.4274 189.577 43.4674 188.497 50.1474 186.717C61.6274 183.647 70.5274 182.607 72.6174 182.377C76.9074 181.897 75.7874 182.227 90.4874 181.357C100.297 180.777 105.327 180.477 111.677 179.827C118.597 179.117 123.717 178.357 128.397 177.657C139.017 176.067 145.627 175.077 154.187 172.937C157.207 172.177 162.707 170.467 173.587 167.067C186.237 163.117 192.557 161.137 194.397 160.427C198.587 158.807 209.957 154.137 222.737 144.977C233.827 137.027 241.097 129.197 244.187 125.697C253.837 114.767 258.667 105.447 260.147 102.467C265.097 92.5065 265.817 86.7065 266.017 83.8265C266.297 79.8165 265.927 75.7565 265.757 73.8665C265.417 70.0465 265.077 66.2965 263.717 61.9965C261.757 55.8365 258.687 51.7065 256.697 49.1065C247.657 37.2665 235.157 31.2665 229.887 28.8065C214.837 21.7765 201.847 21.1165 199.247 21.0165C195.997 20.8865 189.467 21.5265 176.397 22.8065C158.857 24.5165 169.457 24.5765 164.907 24.9765C164.497 25.0165 162.437 25.1865 160.437 26.5065C158.977 27.4765 158.627 28.3565 158.527 28.6765C158.487 28.7965 158.057 30.1565 158.787 31.4865C159.607 32.9965 161.317 33.3565 162.107 33.5265C164.497 34.0365 166.567 33.2165 167.087 33.0165C171.227 31.4065 175.837 31.4365 180.107 30.2065C188.207 27.8765 197.457 29.0765 205.257 30.0765C212.847 31.0565 221.497 32.1765 231.297 37.4765C239.107 41.7065 243.907 46.5665 245.337 48.0765C248.117 50.9865 252.737 55.9465 255.677 63.9065C257.737 69.4865 258.067 74.1065 258.227 76.6765C258.787 85.4065 256.877 92.1265 256.057 94.6765C253.697 102.037 250.177 106.607 244.827 113.447C240.937 118.407 234.877 126.037 224.917 133.997C213.507 143.107 203.447 147.477 191.347 152.637C175.897 159.217 163.557 162.327 152.667 165.017C140.467 168.037 128.987 170.877 113.477 171.907C107.567 172.297 105.357 172.147 91.7774 172.927C78.9574 173.667 72.5474 174.027 67.7774 174.717C50.8474 177.147 39.1674 181.837 36.6274 182.887C28.1574 186.367 22.0574 190.047 18.3674 192.457C9.59744 198.217 12.0474 198.537 5.21744 203.177C4.69744 203.527 1.96744 205.377 0.61744 208.667C0.20744 209.667 -0.39256 211.197 0.35744 212.497C0.88744 213.417 1.93744 213.967 2.90744 214.027C4.44744 214.137 5.66744 213.017 6.09744 212.627Z" fill="#CF2C2C"/>
<path d="M174.947 49.0463C180.797 48.4663 186.697 48.6463 192.567 48.2763C193.507 48.2163 198.517 47.9263 204.397 48.6163C215.317 49.9063 224.027 53.9863 228.737 56.9563C233.517 59.9663 235.917 61.4663 236.827 62.6563C237.557 63.6163 238.687 65.3463 240.567 65.6363C242.127 65.8763 243.477 65.0063 243.547 64.9563C243.817 64.7763 244.737 64.1663 245.077 63.0863C245.327 62.2963 245.307 61.1663 244.137 59.3463C241.987 55.9863 238.317 54.0063 236.567 53.0463C226.107 47.3563 228.097 48.0163 224.907 46.5763C221.587 45.0863 217.717 43.3663 212.307 42.1463C208.187 41.2163 204.977 40.9863 202.097 40.7863C199.257 40.5863 195.607 40.6863 188.307 40.8763C176.367 41.1863 183.787 41.3663 178.777 41.4763C178.777 41.4763 174.337 41.5663 170.947 43.3463C170.467 43.5963 169.667 44.0663 169.327 44.9663C168.937 46.0063 169.327 47.2263 169.927 47.9463C171.187 49.4463 173.787 49.1663 174.947 49.0563V49.0463Z" fill="#CF2C2C"/>
<path d="M181.337 67.3464C188.537 67.4164 191.207 66.9764 195.297 66.9164C196.997 66.8964 203.557 66.8664 211.557 68.7864C214.627 69.5264 218.667 70.5164 223.557 72.9564C226.627 74.4864 232.057 77.1964 235.897 81.5564C237.457 83.3364 239.377 84.7864 240.917 86.5764C241.927 87.7464 242.657 88.7164 243.977 88.9564C245.177 89.1764 246.727 88.8264 247.637 87.6764C248.537 86.5364 248.377 85.1464 248.317 84.6164C248.057 82.3864 246.487 80.8764 245.847 80.2764C236.837 71.8264 231.807 68.9564 231.807 68.9564C228.227 66.8864 222.757 64.0864 215.637 61.8964C212.647 60.9764 208.427 59.6964 202.697 59.0864C194.857 58.2464 195.297 59.8464 185.507 59.2564C185.507 59.2564 182.387 59.0664 177.937 59.9364C174.247 60.6564 172.977 61.5064 172.487 62.6564C172.447 62.7464 171.967 63.9364 172.487 65.0364C173.457 67.1064 177.147 67.2964 181.337 67.3364V67.3464Z" fill="#CF2C2C"/>
<path d="M206.1 86.8401C206.1 86.8401 212.54 87.8701 218.95 90.7501C222.32 92.2701 224.01 93.0301 225.59 94.4101C227.29 95.9001 228.23 97.3401 230.44 97.9001C231.15 98.0801 232.71 98.4501 234.01 97.5601C234.96 96.9101 235.3 95.9101 235.37 95.6901C235.69 94.6901 235.47 93.8301 235.37 93.4801C234.94 91.9101 233.7 90.9101 231.37 89.3901C228.1 87.2701 226.18 86.3301 226.18 86.3301C223.36 84.9501 219.61 83.1601 214.18 81.3901C213.88 81.2901 211.6 80.7601 207.03 79.6901C205.33 79.2901 203.82 78.9601 202.18 79.6001C201.65 79.8101 200.53 80.2701 199.88 81.4701C199.36 82.4501 199.27 83.7201 199.71 84.6201C200.51 86.2701 202.93 86.3301 206.09 86.8301L206.1 86.8401Z" fill="#CF2C2C"/>
<path d="M34.5699 56.16C32.9199 58.63 30.9999 57.92 28.1899 60.25C23.8799 63.82 23.4899 69.53 23.4699 69.95C23.2699 73.72 24.9399 76.55 27.1699 80.04C34.8399 92 39.5499 97.4 39.5499 97.4C52.0899 111.76 51.3999 108.66 56.9999 116.19C61.0599 121.66 66.4599 126.05 70.5699 131.48C71.1399 132.23 72.7699 134.41 75.4199 134.93C77.9299 135.42 80.0999 134.17 81.0399 133.65C85.9099 130.97 91.4799 129.82 96.7399 128.03C103.51 125.74 108.83 123.86 119.46 120.12C132.27 115.61 130.18 116.15 138.61 113.23C149.4 109.49 159.64 104.13 170.65 101.1C170.65 101.1 175.3 99.82 179.84 95.48C180.59 94.77 181.38 93.82 181.5 92.54C181.6 91.5 181.22 90.64 180.99 90.11C180.81 89.7 180.29 88.56 179.08 87.68C178.5 87.26 177.77 86.92 176.4 86.66C174.48 86.3 172.99 86.43 170.78 86.66C167.21 87.03 165.42 87.21 165.04 87.3C161.52 88.11 160.18 89.3 158.02 88.7C156.94 88.4 155.93 87.73 155.85 87.68C155.09 87.17 154.45 86.74 154.06 85.89C153.64 84.98 153.76 84.13 153.8 83.85C153.82 83.69 154.03 82.46 155.08 81.55C156 80.75 157.06 80.64 157.89 80.53C161.49 80.07 156.78 80.23 163.89 79.38C168.04 78.88 170.11 78.63 171.55 78.61C173.87 78.58 176.92 78.56 180.61 79.63C182.75 80.25 184.03 80.64 185.33 81.8C187.1 83.37 187.83 85.37 188.52 87.29C188.88 88.27 189.38 89.69 189.54 91.63C189.63 92.65 189.8 94.99 188.9 97.37C188.11 99.47 186.7 101.06 184.18 102.99C179.87 106.27 175.84 107.83 173.2 108.86C161.86 113.31 165.6 112.42 156.86 115.63C150.13 118.1 148.77 118.32 141.29 120.86C128.73 125.13 128.84 125.78 113.08 131.33C103.07 134.85 98.0699 136.62 96.8699 136.95C96.8699 136.95 92.5899 138.13 88.3199 139.89C87.3099 140.31 87.3199 140.38 86.2799 140.78C84.8099 141.35 84.2099 141.43 83.7299 142.06C83.6999 142.1 83.2099 142.75 83.2199 143.59C83.2399 145.18 85.0399 146.37 85.6499 146.78C86.3699 147.28 89.3199 150.43 95.2199 156.74C98.4799 160.22 97.4199 159.49 100.58 162.87C103.17 165.63 103.98 166.23 103.77 166.96C103.25 168.74 96.9699 169.64 93.0499 166.83C91.7599 165.91 91.7499 165.31 89.7299 162.62C88.9899 161.63 87.9399 160.3 82.4499 154.71C78.8299 151.02 76.0599 148.3 75.0499 147.31C71.1499 143.48 68.4499 140.71 63.0499 135.18C57.6099 129.61 53.5599 125.22 45.6899 116.67C30.0799 99.72 41.5699 111.62 24.2399 91.65C23.1999 90.46 18.7999 85.39 16.5799 78.5C15.6899 75.73 15.3999 73.47 15.2999 72.5C15.0999 70.56 14.8299 67.71 15.6799 64.2C16.0699 62.59 16.8699 59.46 19.3799 56.41C21.4099 53.94 23.6299 52.67 26.0199 51.3C26.6899 50.92 28.0999 50.15 29.9799 49.51C30.4199 49.36 31.3299 49.07 32.5299 48.87C33.8199 48.66 34.4599 48.55 34.8299 48.74C36.1799 49.45 36.3799 53.44 34.5699 56.14V56.16Z" fill="#EEECEC"/>
<path d="M106.06 152.16C112.77 150.57 118.24 148.24 121.51 146.93C129.52 143.71 133.62 142.88 137.98 140.8C139.79 139.94 140.68 139.32 142.58 138.89C143.99 138.57 144.99 138.57 146.28 137.74C146.66 137.5 147.52 136.9 148.19 135.83C148.65 135.11 149.11 134.38 148.96 133.53C148.77 132.49 147.78 131.91 147.05 131.49C145.37 130.52 143.7 130.67 143.22 130.72C141.77 130.9 140.74 131.54 140.41 131.74C137.61 133.46 134.27 134.1 131.22 135.31C127.45 136.81 124.68 137.75 119.86 139.4C112.21 142.01 108.38 143.31 108.12 143.36C106.83 143.59 104.54 143.92 102.24 145.57C100.12 147.09 99.48 147.85 99.31 148.6C99.08 149.61 99.32 150.87 100.08 151.66C101.53 153.19 104.43 152.56 106.08 152.17L106.06 152.16Z" fill="#EEECEC"/>
<path d="M164.91 131.48C171.76 129.57 181.38 124.71 181.38 124.71C190.49 120.11 192.04 120.91 195.81 117.31C198.63 114.61 200.17 111.87 201.55 109.4C202.41 107.87 203.39 105.88 203.59 103.27C203.78 100.81 203.11 99.8099 202.82 99.4399C202.03 98.4199 200.89 98.0399 200.39 97.9099C199.73 97.7399 198.77 97.4299 197.96 97.9099C197.55 98.1599 197.27 98.5499 196.94 99.4399C196.29 101.17 196.46 102.04 196.17 103.27C195.83 104.75 195.08 105.7 193.87 107.23C193.59 107.58 192.66 108.74 190.55 110.42C188.56 112.02 186.93 112.96 184.68 114.25C182.94 115.25 181.05 116.32 178.42 117.44C176.29 118.35 176.45 118.1 173.19 119.35C168.58 121.12 169.25 121.23 165.15 122.8C161.38 124.24 162.94 123.87 161.19 124.71C160.15 125.21 159.42 125.56 159.02 126.37C158.58 127.26 158.79 128.18 158.89 128.67C158.94 128.91 159.29 130.4 160.42 131.22C161.86 132.27 163.9 131.75 164.89 131.48H164.91Z" fill="#EEECEC"/>
<path d="M46.53 144.71C44.56 141.66 41.79 139.22 39.55 136.37C36.21 132.13 33.38 128.87 27.64 122.41C22.17 116.26 20.54 114.89 17.77 110.84C17.77 110.84 15.27 107.89 12.32 101.14C11.74 99.8199 11.06 98.0999 11.81 96.5399C12.32 95.4899 13.44 94.5899 14.7 94.4999C16.14 94.3899 17.22 95.3699 18.1 96.1999C20.29 98.2599 20.43 100.05 22.36 103.35C22.98 104.42 23.74 105.43 25.25 107.44C28.83 112.19 31.89 115.11 36.65 120.38C39.7 123.76 44.48 129.24 47.88 133.49C50.24 136.44 51.04 137.66 52.82 139.28C53.36 139.77 54.14 140.63 55.71 142.34C56.48 143.18 56.93 143.7 57.24 144.55C57.4 144.99 57.76 146.03 57.41 147.27C57.35 147.47 56.9 149.02 55.37 149.82C53.87 150.61 52.34 150.15 51.8 149.99C49.16 149.2 47.86 146.78 46.52 144.71H46.53Z" fill="#EEECEC"/>
<path d="M26.61 136.03C29.54 139.94 29.22 138.62 34.61 145.05C40.66 152.27 39.34 151.87 42.61 155.09C45.27 157.72 47.23 161.01 49.93 163.6C50.26 163.92 51.25 164.85 51.29 166.15C51.33 167.25 50.68 168.29 49.93 168.87C48.17 170.23 45.56 169.3 44.82 169.04C41.67 167.93 40.51 165.54 37.67 161.89C35.4 158.97 36.34 160.75 29.84 153.55C26.29 149.62 24 147.06 21.16 143.34C17.54 138.59 16.12 135.98 15.37 134.49C13.84 131.44 14.79 132.46 12.65 127C12.49 126.58 11.96 125.26 12.14 123.6C12.22 122.86 12.33 121.8 13.16 121.22C14.12 120.55 15.39 120.99 15.54 121.05C17.17 121.65 17.87 123.54 18.09 124.11C18.55 125.29 21.23 128.87 26.6 136.02L26.61 136.03Z" fill="#EEECEC"/>
<path d="M123.81 157.82C123.66 156.46 129.61 155.27 144.58 150.16C151.62 147.76 156.77 145.81 163.3 143.35C178.69 137.55 174.93 138.35 184.24 135.01C192.62 132 196.94 130.89 202.11 126.67C205.69 123.74 207.47 122.27 208.41 120.03C209.01 118.6 209.34 116.93 210.79 116.29C211.9 115.8 213.36 116.05 214.36 116.8C215.41 117.59 215.69 118.71 215.89 119.52C216 119.96 216.32 121.45 215.72 123.43C214.98 125.86 213.34 127.43 211.63 128.88C207.1 132.72 203.12 134.84 203.12 134.84C195.79 138.74 190.69 140.8 190.69 140.8C176.09 145.67 185.86 143.16 169.41 149.65C147.35 158.36 143.28 159.39 137.92 159.69C131.38 160.06 123.96 159.31 123.79 157.82H123.81Z" fill="#EEECEC"/>
<path d="M98.3 108.64C128.3 108.64 152.62 84.3201 152.62 54.32C152.62 24.3199 128.3 0 98.3 0C68.2999 0 43.98 24.3199 43.98 54.32C43.98 84.3201 68.2999 108.64 98.3 108.64Z" fill="#EEECEC"/>
<path d="M79.28 41.02C85.5705 41.02 90.67 35.9205 90.67 29.63C90.67 23.3395 85.5705 18.24 79.28 18.24C72.9895 18.24 67.89 23.3395 67.89 29.63C67.89 35.9205 72.9895 41.02 79.28 41.02Z" fill="#1D1D1B"/>
<path d="M65.05 69.6799C71.3406 69.6799 76.44 64.5804 76.44 58.2899C76.44 51.9994 71.3406 46.8999 65.05 46.8999C58.7595 46.8999 53.66 51.9994 53.66 58.2899C53.66 64.5804 58.7595 69.6799 65.05 69.6799Z" fill="#1D1D1B"/>
<path d="M84.39 95.0901C90.6805 95.0901 95.78 89.9906 95.78 83.7001C95.78 77.4095 90.6805 72.3101 84.39 72.3101C78.0995 72.3101 73 77.4095 73 83.7001C73 89.9906 78.0995 95.0901 84.39 95.0901Z" fill="#1D1D1B"/>
<path d="M98.56 66.3701C104.851 66.3701 109.95 61.2706 109.95 54.9801C109.95 48.6896 104.851 43.5901 98.56 43.5901C92.2695 43.5901 87.17 48.6896 87.17 54.9801C87.17 61.2706 92.2695 66.3701 98.56 66.3701Z" fill="#1D1D1B"/>
<path d="M116.75 93.1699C123.041 93.1699 128.14 88.0704 128.14 81.7799C128.14 75.4894 123.041 70.3899 116.75 70.3899C110.459 70.3899 105.36 75.4894 105.36 81.7799C105.36 88.0704 110.459 93.1699 116.75 93.1699Z" fill="#1D1D1B"/>
<path d="M130.79 63.81C137.081 63.81 142.18 58.7106 142.18 52.42C142.18 46.1295 137.081 41.03 130.79 41.03C124.499 41.03 119.4 46.1295 119.4 52.42C119.4 58.7106 124.499 63.81 130.79 63.81Z" fill="#1D1D1B"/>
<path d="M111.23 38.25C117.52 38.25 122.62 33.1505 122.62 26.86C122.62 20.5694 117.52 15.47 111.23 15.47C104.939 15.47 99.84 20.5694 99.84 26.86C99.84 33.1505 104.939 38.25 111.23 38.25Z" fill="#1D1D1B"/>
</g>
<defs>
<clipPath id="clip0_777_184">
<rect width="280.7" height="290.14" fill="white"/>
</clipPath>
</defs>
</svg>
