<svg width="284" height="355" viewBox="0 0 284 355" fill="none" xmlns="http://www.w3.org/2000/svg">
<g clip-path="url(#clip0_777_212)">
<path d="M21.0749 354.758C23.2906 353.94 23.9786 351.264 24.8589 349.082C25.8403 346.669 27.8031 344.265 31.7489 339.458C35.6138 334.742 39.4282 331.834 42.079 329.834C47.0062 326.118 51.0836 324.108 58.6111 320.382C65.3494 317.05 68.7286 315.383 69.9731 315.05C73.2613 314.192 77.1464 313.747 78.5831 311.102C78.8158 310.677 79.4937 309.435 79.0991 308.011C79.0587 307.88 78.7045 306.648 77.5511 305.951C76.2055 305.133 74.6069 305.557 73.2411 305.951C67.7776 307.547 65.491 308.698 65.491 308.698C59.5115 311.728 60.5334 310.496 54.645 313.515C50.2034 315.787 47.0872 317.787 43.283 320.221C40.1667 322.21 38.2748 323.432 35.7049 325.381C33.0844 327.37 30.3426 329.451 27.2668 332.773C24.7779 335.459 23.2603 337.671 21.0648 340.852C18.4848 344.598 20.1036 342.811 17.2808 347.214C16.1173 349.032 15.3585 350.072 15.5608 351.516C15.7227 352.728 16.5321 353.98 17.7968 354.606C17.8676 354.636 19.4257 355.384 21.0648 354.778L21.0749 354.758Z" fill="#CF2C2C"/>
<path d="M40.3994 312.667C43.3639 310.9 47.3603 308.557 52.9958 306.416C62.6479 302.75 67.474 300.912 68.3036 300.811C69.1131 300.7 72.0674 300.357 72.6947 298.68C72.9274 298.064 72.806 297.368 72.6947 296.681C72.5834 296.024 72.3507 294.641 71.4704 293.843C70.5497 293.015 69.194 293.076 67.5347 293.328C63.346 293.964 60.1894 295.358 59.9769 295.459C53.1273 298.499 54.2099 297.479 48.4833 300.165C45.0535 301.771 42.1801 303.295 39.9542 304.548C38.042 305.618 35.6037 307.002 32.5279 309.062C28.7642 311.576 29.948 311.172 23.2906 316.09C21.3683 317.514 19.8405 319.393 18.0598 320.988C17.6147 321.382 16.6636 322.24 16.441 323.563C16.2893 324.523 16.5827 325.3 16.7041 325.563C16.8154 325.825 17.2808 326.845 18.3836 327.37C19.5168 327.896 20.6196 327.582 21.0951 327.431C22.3396 327.047 22.8454 326.33 24.7779 324.462C25.5772 323.695 26.4271 322.978 27.2365 322.21C29.5736 319.958 34.6729 316.08 40.4095 312.667H40.3994Z" fill="#CF2C2C"/>
<path d="M15.6114 314.232C16.4006 313.252 18.505 311.475 22.7139 307.91C23.5941 307.163 27.0139 304.305 31.8804 301.205C33.7623 300.003 36.2107 298.458 39.6305 296.822C42.0486 295.66 44.1733 294.893 48.4125 293.338C53.0868 291.631 55.4139 290.783 57.9736 290.116C60.3209 289.5 60.3512 289.642 68.1822 288.187C76.2459 286.683 75.7704 286.632 77.3487 286.511C80.6673 286.269 82.9033 286.511 87.9418 286.127C88.8727 286.057 90.2385 285.734 92.9804 285.097C94.2855 284.794 95.1253 284.562 95.8234 283.805C96.0258 283.583 96.9667 282.492 96.7239 281.098C96.5215 279.957 95.6615 279.301 95.3074 279.038C93.8606 277.978 92.1103 278.089 91.3009 278.139C88.3364 278.311 85.3517 278.049 82.3873 278.271C76.2561 278.725 77.0857 278.23 73.4737 278.654C72.5733 278.766 70.8634 278.988 63.6597 280.715C58.348 281.987 55.6972 282.623 53.9772 283.168C50.2337 284.34 50.1325 284.683 41.8361 287.935C35.0776 290.591 34.6526 290.551 32.275 291.803C29.4117 293.307 27.5703 294.651 23.8774 297.347C21.5807 299.023 18.1003 301.578 14.5794 304.951C11.7768 307.637 12.1714 307.748 10.4413 309.081C9.55096 309.768 8.4785 310.485 7.7298 311.919C7.10251 313.121 7.08228 314.08 7.08228 314.373C7.08228 314.929 7.08228 316.201 7.98274 317.079C9.06532 318.15 10.7448 317.938 11.2102 317.857C13.2641 317.494 14.377 315.767 15.6013 314.252L15.6114 314.232Z" fill="#CF2C2C"/>
<path d="M99.4253 306.668C105.061 304.891 111.081 304.689 116.858 303.447C128.706 300.892 129.404 302.053 144.631 299.195C153.736 297.489 160.788 295.701 167.881 293.914C176.966 291.611 183.877 289.592 187.124 288.632C197.859 285.431 203.232 283.835 210.506 280.765C214.705 278.998 218.135 277.312 224.974 273.929C231.52 270.697 235.021 268.788 238.016 266.971C242.73 264.113 242.174 263.951 244.865 262.588C244.886 262.578 246.474 261.77 248.224 260.265C249.732 258.963 250.157 258.195 250.288 257.428C250.45 256.499 250.167 255.721 250.025 255.367C249.934 255.125 249.297 253.53 247.961 253.045C246.606 252.55 245.138 253.418 244.471 253.822C240.049 256.509 229.669 263.103 226.907 264.779C223.396 266.91 220.502 268.203 218.904 268.91C214.624 270.798 213.42 270.849 205.862 273.424C199.144 275.716 199.215 275.979 192.557 278.19C188.47 279.554 188.743 279.352 182.349 281.412C173.911 284.128 173.82 284.35 170.076 285.411C166.06 286.542 163.166 287.127 157.672 288.248C152.077 289.39 151.855 289.268 143.72 290.824C137.063 292.096 136.941 292.227 132.479 293.015C129.829 293.479 126.925 293.924 121.117 294.823C111.668 296.267 112.224 296.115 109.361 296.63C101.611 298.024 101.661 298.448 98.8992 298.559C97.159 298.63 96.2282 298.862 94.3767 299.337C92.7073 299.761 91.7157 300.165 90.8861 301.013C90.6028 301.296 90.0059 301.932 89.7226 302.942C89.6821 303.103 89.1762 305.032 90.2386 306.295C91.1492 307.375 92.687 307.365 94.7611 307.325C97.5536 307.264 99.4152 306.678 99.4152 306.678L99.4253 306.668Z" fill="#CF2C2C"/>
<path d="M109.118 281.917C129.889 281.674 141.019 278.695 141.019 278.695C157.338 274.332 155.355 276.372 176.663 270.828C189.593 267.465 194.571 265.617 197.07 264.638C200.136 263.446 204.881 261.305 214.381 257.034C220.917 254.095 224.236 252.59 226.654 251.358C228.04 250.651 234.414 247.369 242.538 242.078C247.172 239.058 250.926 236.594 255.58 232.666C259.607 229.273 261.893 226.819 264.362 224.153C264.362 224.153 266.972 221.335 270.048 216.548C270.493 215.862 271.06 214.912 271.464 213.579C271.626 213.034 271.748 212.358 271.98 211.004C272.365 208.773 272.304 208.49 272.243 208.298C271.91 207.278 270.888 206.44 269.785 206.238C269.4 206.167 268.217 206.046 266.294 207.652C263.998 209.58 263.239 211.843 262.419 213.579C261.478 215.579 259.718 217.488 256.217 221.315C254.224 223.486 250.703 227.061 245.756 230.727C243.783 232.181 242.194 233.211 233.615 238.079C225.46 242.704 221.403 245.037 219.541 245.945C215.615 247.844 212.671 249.076 200.034 253.933C188.065 258.548 182.076 260.851 179.496 261.669C171.948 264.062 166.252 265.335 157.278 267.344C152.876 268.324 145.723 269.849 136.87 271.343C126.682 273.06 121.593 273.918 119.559 273.797C116.544 273.605 113.539 274.433 110.514 274.575C109.543 274.615 107.894 274.686 106.771 275.867C106.052 276.625 105.607 277.786 105.739 278.958C105.769 279.21 105.911 280.493 106.902 281.28C107.691 281.906 108.663 281.927 109.098 281.927L109.118 281.917Z" fill="#CF2C2C"/>
<path d="M13.4058 292.752C18.0801 289.117 20.4274 287.299 24.6464 283.341C26.7711 281.341 29.5129 279.857 34.9764 276.898C37.6272 275.464 43.4752 272.323 50.9925 269.94C56.4965 268.193 61.9701 267.506 72.6947 266.203C81.6184 265.123 89.156 264.456 95.0444 264.012C110.413 262.84 110.808 263.386 119.59 262.467C128.068 261.578 133.855 260.407 145.42 258.084C154.495 256.256 163.399 254.469 175.125 251.126C183.108 248.844 191.556 246.44 202.503 241.846C209.09 239.079 218.114 234.888 228.202 228.829C233.938 225.385 238.4 222.678 243.955 218.124C245.816 216.609 252.292 211.196 259.323 202.653C262.622 198.644 265.009 194.827 269.785 187.182C269.785 187.182 271.687 184.142 273.923 175.195C274.024 174.811 274.267 173.771 273.791 172.741C273.71 172.559 273.225 171.499 272.112 171.196C271.1 170.913 270.21 171.448 269.785 171.711C268.894 172.246 268.389 173.004 267.721 174.286C266.891 175.892 266.476 176.69 266.041 178.154C265.586 179.699 264.099 182.062 261.134 186.788C258.666 190.716 257.35 192.817 255.195 195.685C253.546 197.876 251.826 200.159 249.256 202.774C246.788 205.279 245.29 206.299 241.122 209.611C233.665 215.519 234.647 215.266 230.792 218.124C225.035 222.386 220.097 224.981 216.84 226.667C214.948 227.647 211.417 229.424 203.282 232.686C193.539 236.594 185.597 239.281 181.327 240.674C172.454 243.583 164.603 246.158 153.979 248.672C140.563 251.843 130.112 253.176 121.785 254.206C115.209 255.024 114.369 254.954 92.5959 256.781C63.5585 259.225 60.0174 259.781 55.1407 260.912C53.2892 261.346 36.2512 265.385 25.9515 272.515C22.5217 274.888 21.5403 276.423 16.269 279.867C14.458 281.048 12.91 282.502 9.81403 285.411C8.97427 286.198 7.68934 287.441 7.48699 289.279C7.44652 289.662 7.33523 290.773 8.00298 291.854C8.67074 292.934 9.89497 293.661 11.099 293.661C12.2422 293.661 13.0921 293.015 13.426 292.763L13.4058 292.752Z" fill="#CF2C2C"/>
<path d="M6.16912 276.722C10.6816 272.612 15.5279 268.886 19.9897 264.735C24.401 260.635 28.5391 258.717 34.4578 255.97C39.891 253.445 43.9785 252.355 50.737 250.557C62.352 247.457 71.3566 246.407 73.4712 246.174C77.8116 245.69 76.6784 246.023 91.5512 245.144C101.477 244.559 106.566 244.256 112.99 243.599C119.992 242.882 125.172 242.115 129.907 241.408C140.652 239.802 147.339 238.802 156 236.641C159.056 235.874 164.62 234.147 175.628 230.713C188.427 226.724 194.821 224.725 196.683 224.008C200.922 222.372 212.426 217.656 225.356 208.406C236.576 200.377 243.932 192.47 247.058 188.936C256.822 177.898 261.708 168.486 263.206 165.477C268.214 155.418 268.942 149.561 269.145 146.653C269.428 142.603 269.054 138.503 268.882 136.595C268.538 132.737 268.194 128.95 266.818 124.608C264.835 118.387 261.729 114.216 259.715 111.591C250.569 99.6339 237.922 93.5748 232.59 91.0905C217.363 83.9912 204.22 83.3247 201.59 83.2237C198.302 83.0925 191.695 83.7388 178.471 85.0314C160.725 86.7582 171.45 86.8188 166.846 87.2228C166.431 87.2632 164.347 87.4348 162.324 88.7679C160.846 89.7474 160.492 90.6361 160.391 90.9592C160.351 91.0804 159.916 92.4538 160.654 93.7969C161.484 95.3218 163.214 95.6854 164.013 95.857C166.431 96.3721 168.526 95.544 169.052 95.342C173.24 93.7162 177.905 93.7464 182.225 92.5043C190.42 90.1514 199.779 91.3632 207.67 92.373C215.35 93.3627 224.101 94.4937 234.017 99.846C241.918 104.118 246.775 109.026 248.222 110.55C251.034 113.489 255.709 118.498 258.683 126.537C260.767 132.172 261.101 136.837 261.263 139.432C261.83 148.248 259.897 155.035 259.068 157.61C256.68 165.042 253.119 169.657 247.706 176.565C243.77 181.574 237.639 189.279 227.562 197.317C216.017 206.517 205.839 210.93 193.597 216.141C177.965 222.786 165.48 225.927 154.462 228.643C142.119 231.693 130.504 234.561 114.812 235.601C108.832 235.995 106.596 235.843 92.8564 236.631C79.8857 237.378 73.4003 237.742 68.5742 238.439C51.4452 240.893 39.6279 245.629 37.058 246.689C28.4885 250.204 22.3168 253.92 18.5834 256.354C9.71027 262.17 12.1891 262.494 5.27878 267.179C4.75266 267.533 1.99057 269.401 0.624698 272.723C0.209878 273.733 -0.397175 275.278 0.361642 276.591C0.897873 277.52 1.96022 278.076 2.94162 278.136C4.49973 278.247 5.73407 277.116 6.16912 276.722Z" fill="#CF2C2C"/>
<path d="M177.004 111.53C182.923 110.944 188.892 111.126 194.831 110.752C195.782 110.692 200.851 110.399 206.8 111.095C217.849 112.398 226.661 116.518 231.426 119.518C236.263 122.557 238.691 124.072 239.612 125.274C240.35 126.243 241.493 127.99 243.396 128.283C244.974 128.526 246.34 127.647 246.411 127.597C246.684 127.415 247.615 126.799 247.959 125.708C248.212 124.91 248.191 123.769 247.008 121.931C244.832 118.538 241.119 116.539 239.349 115.569C228.766 109.823 230.779 110.49 227.551 109.035C224.192 107.531 220.277 105.794 214.803 104.562C210.635 103.623 207.387 103.39 204.473 103.188C201.6 102.986 197.907 103.087 190.521 103.279C178.441 103.592 185.948 103.774 180.879 103.885C180.879 103.885 176.387 103.976 172.957 105.774C172.471 106.026 171.662 106.501 171.318 107.41C170.923 108.46 171.318 109.692 171.925 110.419C173.2 111.934 175.83 111.651 177.004 111.54V111.53Z" fill="#CF2C2C"/>
<path d="M183.469 130.01C190.754 130.081 193.455 129.637 197.593 129.576C199.313 129.556 205.951 129.526 214.045 131.465C217.151 132.212 221.238 133.212 226.186 135.676C229.292 137.221 234.786 139.957 238.671 144.36C240.249 146.158 242.192 147.622 243.75 149.43C244.772 150.611 245.51 151.591 246.846 151.833C248.06 152.056 249.628 151.702 250.549 150.541C251.459 149.389 251.297 147.986 251.237 147.451C250.974 145.199 249.385 143.674 248.738 143.068C239.622 134.534 234.533 131.636 234.533 131.636C230.911 129.546 225.376 126.718 218.173 124.507C215.147 123.578 210.878 122.285 205.08 121.669C197.148 120.821 197.593 122.436 187.688 121.841C187.688 121.841 184.532 121.649 180.029 122.527C176.296 123.254 175.011 124.113 174.515 125.274C174.475 125.365 173.989 126.567 174.515 127.678C175.497 129.768 179.23 129.96 183.469 130V130.01Z" fill="#CF2C2C"/>
<path d="M208.523 149.696C208.523 149.696 215.039 150.736 221.524 153.645C224.934 155.18 226.643 155.947 228.242 157.341C229.962 158.845 230.913 160.299 233.149 160.865C233.867 161.047 235.446 161.42 236.761 160.522C237.722 159.865 238.066 158.855 238.137 158.633C238.461 157.623 238.238 156.755 238.137 156.401C237.702 154.816 236.447 153.806 234.09 152.271C230.782 150.13 228.839 149.181 228.839 149.181C225.986 147.787 222.192 145.98 216.698 144.192C216.394 144.091 214.088 143.556 209.464 142.476C207.744 142.072 206.216 141.738 204.557 142.385C204.021 142.597 202.887 143.061 202.23 144.273C201.704 145.263 201.613 146.545 202.058 147.454C202.867 149.12 205.316 149.181 208.513 149.686L208.523 149.696Z" fill="#CF2C2C"/>
<path d="M34.9764 118.714C33.307 121.208 31.3644 120.491 28.5214 122.844C24.1607 126.449 23.7661 132.215 23.7459 132.64C23.5435 136.447 25.2332 139.305 27.4894 142.829C35.2496 154.907 40.0149 160.36 40.0149 160.36C52.7024 174.862 52.0042 171.731 57.6701 179.335C61.7778 184.859 67.2413 189.292 71.3996 194.776C71.9763 195.533 73.6255 197.735 76.3066 198.26C78.8461 198.755 81.0417 197.493 81.9927 196.967C86.92 194.261 92.5554 193.1 97.8773 191.292C104.727 188.979 110.109 187.081 120.864 183.304C133.825 178.75 131.71 179.295 140.24 176.346C151.156 172.569 161.517 167.156 172.656 164.097C172.656 164.097 177.361 162.804 181.954 158.421C182.713 157.704 183.512 156.745 183.634 155.452C183.735 154.402 183.35 153.533 183.118 152.998C182.936 152.584 182.41 151.433 181.185 150.544C180.598 150.12 179.86 149.777 178.474 149.514C176.531 149.151 175.024 149.282 172.788 149.514C169.176 149.888 167.365 150.07 166.98 150.161C163.419 150.979 162.063 152.18 159.878 151.574C158.785 151.271 157.763 150.595 157.682 150.544C156.913 150.029 156.266 149.595 155.871 148.737C155.446 147.818 155.568 146.959 155.608 146.677C155.628 146.515 155.841 145.273 156.903 144.354C157.834 143.546 158.906 143.435 159.746 143.324C163.388 142.859 158.623 143.021 165.817 142.162C170.015 141.658 172.11 141.405 173.567 141.385C175.914 141.355 179 141.334 182.733 142.415C184.898 143.041 186.193 143.435 187.509 144.606C189.3 146.192 190.038 148.212 190.736 150.15C191.101 151.14 191.606 152.574 191.768 154.533C191.859 155.563 192.031 157.926 191.121 160.33C190.321 162.451 188.895 164.056 186.345 166.005C181.985 169.318 177.907 170.893 175.236 171.933C163.763 176.427 167.547 175.528 158.704 178.77C151.895 181.264 150.519 181.486 142.951 184.051C130.243 188.363 130.355 189.02 114.409 194.625C104.282 198.179 99.2229 199.967 98.0088 200.3C98.0088 200.3 93.6785 201.492 89.3583 203.269C88.3364 203.693 88.3465 203.764 87.2943 204.168C85.807 204.743 85.2 204.824 84.7143 205.46C84.684 205.501 84.1882 206.157 84.1983 207.005C84.2186 208.611 86.0397 209.813 86.6569 210.227C87.3854 210.732 90.37 213.913 96.3394 220.285C99.6377 223.799 98.5653 223.062 101.762 226.475C104.383 229.263 105.202 229.869 104.99 230.606C104.464 232.403 98.11 233.312 94.1439 230.474C92.8387 229.545 92.8286 228.939 90.7849 226.223C90.0362 225.223 88.9738 223.88 83.4193 218.235C79.7567 214.509 76.9542 211.762 75.9323 210.762C71.9864 206.894 69.2547 204.097 63.7912 198.512C58.2873 192.888 54.1896 188.454 46.2271 179.82C30.4336 162.703 42.0587 174.72 24.5249 154.553C23.4727 153.352 19.021 148.232 16.7749 141.274C15.8744 138.476 15.581 136.194 15.4798 135.215C15.2775 133.256 15.0043 130.377 15.8643 126.833C16.2589 125.207 17.0683 122.046 19.6078 118.966C21.6617 116.472 23.9078 115.189 26.3259 113.806C27.0037 113.422 28.4303 112.644 30.3324 111.998C30.7776 111.847 31.6983 111.554 32.9124 111.352C34.2176 111.14 34.8651 111.029 35.2394 111.22C36.6053 111.937 36.8077 115.967 34.9764 118.693V118.714Z" fill="#EEECEC"/>
<path d="M107.307 215.66C114.096 214.054 119.63 211.701 122.938 210.378C131.043 207.126 135.191 206.288 139.602 204.188C141.433 203.319 142.334 202.693 144.256 202.259C145.683 201.936 146.695 201.936 148 201.098C148.384 200.855 149.254 200.249 149.932 199.169C150.398 198.442 150.863 197.705 150.711 196.846C150.519 195.796 149.517 195.21 148.779 194.786C147.079 193.806 145.389 193.958 144.904 194.008C143.437 194.19 142.395 194.837 142.061 195.038C139.228 196.775 135.849 197.422 132.763 198.644C128.948 200.158 126.146 201.108 121.269 202.774C113.529 205.41 109.654 206.723 109.391 206.773C108.086 207.005 105.769 207.339 103.442 209.005C101.297 210.54 100.65 211.307 100.478 212.065C100.245 213.085 100.488 214.357 101.257 215.155C102.724 216.7 105.658 216.064 107.327 215.67L107.307 215.66Z" fill="#EEECEC"/>
<path d="M166.849 194.776C173.779 192.847 183.512 187.939 183.512 187.939C192.73 183.294 194.298 184.102 198.112 180.466C200.965 177.74 202.523 174.973 203.92 172.478C204.79 170.933 205.781 168.924 205.984 166.288C206.176 163.804 205.498 162.794 205.204 162.42C204.405 161.39 203.252 161.006 202.746 160.875C202.078 160.703 201.107 160.39 200.287 160.875C199.873 161.128 199.589 161.521 199.255 162.42C198.598 164.167 198.77 165.046 198.476 166.288C198.132 167.782 197.373 168.742 196.149 170.287C195.866 170.64 194.925 171.812 192.79 173.508C190.777 175.124 189.128 176.073 186.851 177.376C185.091 178.386 183.179 179.467 180.518 180.598C178.363 181.517 178.524 181.264 175.226 182.526C170.562 184.314 171.24 184.425 167.092 186.01C163.277 187.465 164.856 187.091 163.085 187.939C162.033 188.444 161.294 188.798 160.89 189.616C160.444 190.514 160.657 191.443 160.758 191.938C160.809 192.181 161.163 193.685 162.306 194.513C163.763 195.574 165.827 195.049 166.829 194.776H166.849Z" fill="#EEECEC"/>
<path d="M47.077 208.136C45.0838 205.056 42.2813 202.592 40.0149 199.714C36.6357 195.432 33.7724 192.14 27.9649 185.617C22.4306 179.406 20.7814 178.022 17.9789 173.932C17.9789 173.932 15.4495 170.953 12.4648 164.137C11.878 162.804 11.19 161.067 11.9488 159.492C12.4648 158.431 13.598 157.522 14.8728 157.431C16.3297 157.32 17.4224 158.31 18.3127 159.148C20.5285 161.228 20.6701 163.036 22.6228 166.369C23.2501 167.449 24.0191 168.469 25.5468 170.499C29.1689 175.296 32.2649 178.245 37.0808 183.567C40.1667 186.98 45.0029 192.514 48.4428 196.806C50.8306 199.785 51.64 201.017 53.4409 202.653C53.9873 203.148 54.7764 204.016 56.3649 205.743C57.1439 206.591 57.5992 207.116 57.9129 207.975C58.0748 208.419 58.439 209.469 58.0849 210.722C58.0242 210.924 57.5689 212.489 56.0209 213.297C54.5033 214.095 52.9553 213.63 52.4089 213.468C49.7379 212.671 48.4226 210.227 47.0669 208.136H47.077Z" fill="#EEECEC"/>
<path d="M26.9229 199.371C29.8873 203.32 29.5635 201.987 35.0169 208.48C41.138 215.771 39.8025 215.367 43.111 218.619C45.8022 221.275 47.7853 224.597 50.517 227.213C50.8509 227.536 51.8525 228.475 51.893 229.788C51.9335 230.899 51.2758 231.949 50.517 232.535C48.7363 233.908 46.0956 232.969 45.3469 232.706C42.1599 231.585 40.9863 229.172 38.1129 225.486C35.8162 222.537 36.7672 224.335 30.1908 217.064C26.5991 213.095 24.2822 210.51 21.4088 206.753C17.7462 201.956 16.3095 199.32 15.5507 197.816C14.0027 194.736 14.9639 195.766 12.7987 190.252C12.6369 189.828 12.1006 188.495 12.2827 186.818C12.3637 186.071 12.475 185.001 13.3147 184.415C14.286 183.738 15.5709 184.183 15.7227 184.243C17.3719 184.849 18.0801 186.758 18.3027 187.333C18.7681 188.525 21.4796 192.14 26.9127 199.361L26.9229 199.371Z" fill="#EEECEC"/>
<path d="M125.266 221.376C125.114 220.002 131.134 218.8 146.28 213.64C153.403 211.216 158.613 209.247 165.22 206.763C180.791 200.906 176.987 201.714 186.406 198.341C194.885 195.301 199.255 194.18 204.486 189.919C208.108 186.96 209.909 185.475 210.86 183.213C211.467 181.769 211.801 180.083 213.268 179.436C214.391 178.941 215.868 179.194 216.88 179.951C217.942 180.749 218.226 181.88 218.428 182.698C218.539 183.142 218.863 184.647 218.256 186.647C217.507 189.101 215.848 190.686 214.118 192.15C209.535 196.028 205.508 198.169 205.508 198.169C198.092 202.108 192.932 204.188 192.932 204.188C178.16 209.106 188.045 206.571 171.402 213.125C149.082 221.921 144.964 222.961 139.541 223.264C132.925 223.638 125.417 222.88 125.245 221.376H125.266Z" fill="#EEECEC"/>
<path d="M99.4557 171.711C129.808 171.711 154.414 147.151 154.414 116.855C154.414 86.5596 129.808 62 99.4557 62C69.1029 62 44.4971 86.5596 44.4971 116.855C44.4971 147.151 69.1029 171.711 99.4557 171.711Z" fill="#EEECEC"/>
<path d="M80.212 103.424C86.5765 103.424 91.7359 98.2745 91.7359 91.922C91.7359 85.5694 86.5765 80.4197 80.212 80.4197C73.8475 80.4197 68.6881 85.5694 68.6881 91.922C68.6881 98.2745 73.8475 103.424 80.212 103.424Z" fill="#1D1D1B"/>
<path d="M65.8148 132.367C72.1793 132.367 77.3387 127.217 77.3387 120.865C77.3387 114.512 72.1793 109.362 65.8148 109.362C59.4503 109.362 54.2909 114.512 54.2909 120.865C54.2909 127.217 59.4503 132.367 65.8148 132.367Z" fill="#1D1D1B"/>
<path d="M85.3821 158.027C91.7465 158.027 96.906 152.878 96.906 146.525C96.906 140.172 91.7465 135.023 85.3821 135.023C79.0176 135.023 73.8582 140.172 73.8582 146.525C73.8582 152.878 79.0176 158.027 85.3821 158.027Z" fill="#1D1D1B"/>
<path d="M99.7187 129.024C106.083 129.024 111.243 123.875 111.243 117.522C111.243 111.17 106.083 106.02 99.7187 106.02C93.3543 106.02 88.1948 111.17 88.1948 117.522C88.1948 123.875 93.3543 129.024 99.7187 129.024Z" fill="#1D1D1B"/>
<path d="M118.123 156.088C124.487 156.088 129.646 150.939 129.646 144.586C129.646 138.233 124.487 133.084 118.123 133.084C111.758 133.084 106.599 138.233 106.599 144.586C106.599 150.939 111.758 156.088 118.123 156.088Z" fill="#1D1D1B"/>
<path d="M132.328 126.439C138.692 126.439 143.852 121.289 143.852 114.937C143.852 108.584 138.692 103.434 132.328 103.434C125.963 103.434 120.804 108.584 120.804 114.937C120.804 121.289 125.963 126.439 132.328 126.439Z" fill="#1D1D1B"/>
<path d="M112.538 100.627C118.902 100.627 124.062 95.4774 124.062 89.1248C124.062 82.7723 118.902 77.6226 112.538 77.6226C106.173 77.6226 101.014 82.7723 101.014 89.1248C101.014 95.4774 106.173 100.627 112.538 100.627Z" fill="#1D1D1B"/>
<path d="M35.66 328V279.4H55.64V285.52H44.54V299.68H53.6V305.86H44.54V328H35.66ZM88.0452 328V279.4H96.9252V321.88H108.685V328H88.0452ZM153.513 328.66C150.073 328.66 147.333 328.02 145.293 326.74C143.253 325.46 141.793 323.62 140.913 321.22C140.033 318.82 139.593 315.98 139.593 312.7V294.52C139.593 291.24 140.033 288.44 140.913 286.12C141.793 283.76 143.253 281.96 145.293 280.72C147.333 279.48 150.073 278.86 153.513 278.86C157.033 278.86 159.793 279.48 161.793 280.72C163.833 281.96 165.293 283.76 166.173 286.12C167.093 288.44 167.553 291.24 167.553 294.52V312.76C167.553 316 167.093 318.82 166.173 321.22C165.293 323.58 163.833 325.42 161.793 326.74C159.793 328.02 157.033 328.66 153.513 328.66ZM153.513 322.12C154.993 322.12 156.073 321.8 156.753 321.16C157.473 320.52 157.953 319.64 158.193 318.52C158.433 317.4 158.553 316.18 158.553 314.86V292.48C158.553 291.12 158.433 289.9 158.193 288.82C157.953 287.74 157.473 286.9 156.753 286.3C156.073 285.66 154.993 285.34 153.513 285.34C152.113 285.34 151.053 285.66 150.333 286.3C149.613 286.9 149.133 287.74 148.893 288.82C148.653 289.9 148.533 291.12 148.533 292.48V314.86C148.533 316.18 148.633 317.4 148.833 318.52C149.073 319.64 149.553 320.52 150.273 321.16C150.993 321.8 152.073 322.12 153.513 322.12ZM206.822 328L199.922 279.4H207.362L211.382 310.9L216.422 279.52H222.482L227.642 310.9L231.602 279.4H238.922L232.142 328H224.942L219.542 295.42L214.202 328H206.822Z" fill="#EEECEC"/>
</g>
<path d="M35.66 72V23.4H55.64V29.52H44.54V43.68H53.6V49.86H44.54V72H35.66ZM90.6852 72V23.4H99.4452V72H90.6852ZM136.969 72V23.4H145.849V65.88H157.609V72H136.969ZM192.103 72L192.943 23.4H202.123L209.023 57.06L216.223 23.4H225.103L226.003 72H219.402L218.683 38.22L211.783 72H206.443L199.423 38.1L198.763 72H192.103Z" fill="#EEECEC"/>
<defs>
<clipPath id="clip0_777_212">
<rect width="284" height="293" fill="white" transform="translate(0 62)"/>
</clipPath>
</defs>
</svg>
